<?xml version="1.0" encoding="utf-8"?>
<!-- Generator: Adobe Illustrator 26.0.1, SVG Export Plug-In . SVG Version: 6.00 Build 0)  -->
<svg version="1.1" id="Layer_1" xmlns="http://www.w3.org/2000/svg" xmlns:xlink="http://www.w3.org/1999/xlink" x="0px" y="0px"
	 viewBox="0 0 40 40" enable-background="new 0 0 40 40" xml:space="preserve">
<path fill="#3E4A9F" d="M13.8,20.8c-0.8,0.5-1.5,1.2-2.1,1.9c-0.9-0.6-1.4-1.6-1.4-2.7c0-1.1,0.5-2.1,1.4-2.7
	c0.6,0.8,1.3,1.4,2.1,1.9l-0.5,0.3c-0.5,0.3-0.5,0.8,0,1.1L13.8,20.8z"/>
<path fill="#3E4A9F" d="M22.2,0h-4.4C8,0,0,8,0,17.8v4.4C0,32,8,40,17.8,40h4.4C32,40,40,32,40,22.2v-4.4C40,8,32,0,22.2,0z
	 M26.3,9.9L14.2,9.3c0,0-0.1,0-0.1,0.1c0,0,0,0.1,0,0.1v3.7c0,1.7,1.4,3.2,3.2,3.2l6.7,0.1c2,0,3.6,1.6,3.6,3.6v0
	c0,1.9-1.6,3.6-3.5,3.6l-6.7,0.1c-1.8,0-3.2,1.4-3.2,3.2v3.7c0,0,0,0,0,0.1c0.1,0.1,0.1,0,0.1,0l12.1-0.6c0.3,0,0.4-0.4,0.1-0.5h0
	L16.5,25c0.2-0.1,0.5-0.1,0.7-0.1l5.2-0.1c0,0,0.1,0,0.1,0l5.5,2.5c1.2,0.6,1.9,1.9,1.7,3.1c-0.3,1.3-1.3,2.2-2.6,2.2l-12.8,0.6
	c-0.8,0-1.5-0.3-2.1-0.8c-0.5-0.5-0.8-1.3-0.8-2v-3.7c0-3.2,2.6-5.8,5.8-5.9l6.7-0.1c0.8,0,1.2-1.1,0.7-1.6
	c-0.2-0.2-0.4-0.3-0.7-0.3L17.2,19c-3.2,0-5.8-2.7-5.8-5.9V9.5c0-0.8,0.3-1.5,0.8-2c0.6-0.5,1.3-0.8,2.1-0.8l12.8,0.6
	c1.3,0.1,2.4,0.9,2.6,2.2c0.3,1.3-0.5,2.6-1.7,3.1l-5.5,2.5c0,0-0.1,0-0.1,0l-5.2-0.1c-0.3,0-0.5-0.1-0.7-0.1l9.9-4.6c0,0,0,0,0,0
	C26.7,10.3,26.6,9.9,26.3,9.9z"/>
</svg>
